<svg width="251" height="421" viewBox="0 0 251 421" fill="none" xmlns="http://www.w3.org/2000/svg">
<g filter="url(#filter0_d_373_1310)">
<ellipse cx="99" cy="367.5" rx="74" ry="28.5" fill="#D7D2D2" fill-opacity="0.92"/>
</g>
<g clip-path="url(#clip0_373_1310)">
<path d="M138.389 119.775H78.3689V144.405H138.389V119.775Z" fill="#2E4356"/>
<path d="M160.356 186.114C157.569 193.078 159.023 200.39 158.729 207.541C158.409 214.973 157.235 222.218 152.06 227.648C143.631 236.468 136.802 246.488 129.173 255.908C116.582 271.465 100.83 271.919 86.1181 258.429C84.9137 257.448 83.6387 256.556 82.3035 255.761L82.1968 255.561C81.2232 254.107 80.2361 252.652 79.2491 251.211L79.4492 251.371L76.6483 247.635C75.8549 243.327 74.4302 239.159 72.4202 235.267C57.6552 209.516 64.1775 181.31 63.2038 153.985C63.1238 151.61 64.1107 148.728 67.9254 150.369C89.7193 159.709 112.367 155.293 134.774 154.305C139.669 154.092 145.445 152.157 146.072 147.434C146.792 142.097 140.043 142.537 136.442 140.589C138.629 130.022 128.959 131.703 124.704 131.249C109.566 129.715 94.4143 128.221 79.0758 128.247C54.4809 128.247 39.2891 115.719 32.5402 91.9694C31.4465 88.1134 29.8727 84.3909 28.5389 80.6016C29.2591 79.6677 30.5929 78.7337 30.5795 77.8264C30.4461 70.3013 36.1147 68.5668 41.3164 68.8069C47.3718 69.0738 43.904 74.8244 44.1707 77.8798C45.5045 93.5571 64.0441 114.225 82.5436 112.957C97.9221 111.903 113.434 112.957 128.879 112.744C150.14 112.41 165.398 97.7867 167.452 76.4121C167.759 73.1699 165.571 68.1798 172.2 68.4066C177.815 68.5801 181.137 71.342 181.843 76.7457C182.157 80.4995 182.264 84.2678 182.164 88.0334C178.549 102.937 171.627 115.305 157.529 123.071C152.245 125.794 146.518 127.551 140.616 128.261C137.375 128.768 133.601 127.527 130.813 130.929C134.321 137.174 140.456 138.188 146.672 139.068C152.887 139.949 158.542 141.136 160.783 148.114C161.268 149.28 162.186 150.213 163.344 150.716C174.374 155.346 175.695 163.872 172.974 174.092C167.972 177.227 161.343 178.789 160.356 186.114ZM122.184 186.114C122.184 168.141 122.184 168.141 104.191 168.275H103.257C91.6133 168.408 90.9731 169.022 90.9197 180.483C90.7863 205.407 89.0658 201.511 112.42 202.231C119.649 202.445 123.09 200.176 122.197 192.665C122.059 190.479 122.055 188.287 122.184 186.1V186.114ZM147.926 220.604C154.688 212.211 156.195 157.307 150.113 148.475C149.606 172.891 152.26 196.787 147.926 220.59V220.604ZM117.409 129.875C116.995 129.502 116.635 128.915 116.235 128.888C115.835 128.861 115.208 129.301 114.688 129.528C115.101 129.889 115.475 130.502 115.928 130.556C116.382 130.609 116.902 130.115 117.409 129.862V129.875Z" fill="#DEE9F5"/>
<path d="M182.164 88.06C182.264 84.2944 182.157 80.5262 181.844 76.7724C181.137 71.3687 177.842 68.6068 172.2 68.4333C165.531 68.2465 167.759 73.2366 167.452 76.4388C165.398 97.7867 150.113 112.463 128.879 112.77C113.434 113.01 97.9221 111.93 82.5437 112.984C64.0441 114.318 45.5579 93.5838 44.1708 77.9065C43.904 74.8511 47.3718 69.1004 41.3165 68.8336C36.1147 68.5934 30.4462 70.328 30.5796 77.8531C30.5796 78.7604 29.2458 79.6943 28.5389 80.6283L26.9117 78.7203C27.8453 70.3146 28.4322 61.9089 26.4849 53.5565L30.6997 51.0348C30.8798 53.2326 30.8798 55.4415 30.6997 57.6393C29.5926 64.484 33.1405 65.8182 38.8757 65.0444C43.6907 64.3906 45.2645 61.6554 45.918 56.9188C48.9724 34.7037 63.9508 21.9217 86.5317 21.7749C98.8024 21.7082 111.087 21.7749 123.357 21.7749C149.566 21.7749 162.904 32.6489 167.372 58.3998C168.199 63.1497 170.533 64.564 174.721 65.071C179.229 65.6848 180.803 64.097 180.977 59.5206C181.083 56.9321 183.017 54.4104 184.124 51.8487C185.058 50.0208 183.711 49.7272 182.457 49.3537L182.35 49.2469C185.511 48.7533 185.792 51.4618 186.845 53.2497C184.671 61.9489 185.071 70.6882 186.485 79.4408C185.898 82.8432 187.125 87.0193 182.164 88.06ZM106.618 92.0628C114.954 91.5557 123.544 91.1421 129.066 83.1767C132.467 78.2533 132.8 74.0505 125.065 73.9704C112.54 73.8237 100.016 73.9704 87.492 74.0772C81.3166 74.1572 80.8231 77.2393 83.6107 82.0159C88.8924 90.7952 97.6554 91.3423 106.618 92.0628ZM75.7014 39.9339C68.5123 39.6937 61.7234 45.7912 61.6967 52.5158C61.6967 58.173 69.3526 66.4053 74.8744 66.6455C80.3963 66.8856 87.8254 59.2804 88.0922 52.796C88.1353 49.4521 86.8584 46.2261 84.5386 43.8181C82.2189 41.4101 79.0434 40.0144 75.7014 39.9339ZM152.167 52.2623C152.3 45.4444 146.659 39.974 139.456 39.9206C132.254 39.8672 126.118 45.2576 125.772 51.5552C125.451 58.2264 131.867 64.9643 138.709 65.2178C142.199 65.2609 145.565 63.924 148.075 61.498C150.585 59.072 152.037 55.753 152.114 52.2623H152.167Z" fill="#2E4356"/>
<path d="M184.084 51.9287C182.977 54.4905 181.043 57.0122 180.937 59.6006C180.763 64.1771 179.189 65.7648 174.681 65.151C170.493 64.5907 168.159 63.1764 167.332 58.4798C162.877 32.7289 149.539 21.8282 123.317 21.8549C111.046 21.8549 98.7624 21.8549 86.4916 21.8549C63.9107 22.0017 48.9324 34.7837 45.878 56.9988C45.2245 61.7354 43.6506 64.4706 38.8356 65.1244C33.1004 65.8982 29.4992 64.564 30.6595 57.7193C30.8397 55.5215 30.8397 53.3126 30.6595 51.1148C31.7933 31.5548 37.982 14.9035 56.5483 5.11015C63.724 1.32091 71.3532 0.120089 79.3159 0.106747C95.9748 0.106747 112.66 0.0133528 129.293 0.0266953C162.33 0.0266953 180.056 16.5713 182.27 49.3936C182.27 49.3936 182.377 49.5137 182.377 49.5271C182.057 50.9013 182.47 51.822 184.084 51.9287ZM106.258 15.2904C109.112 14.1696 113.794 15.3972 113.394 10.0335C113.396 9.16189 113.224 8.29863 112.888 7.49433C112.552 6.69003 112.059 5.96086 111.438 5.34951C110.817 4.73817 110.08 4.25694 109.271 3.93404C108.462 3.61114 107.596 3.45306 106.725 3.46904C102.484 3.46904 99.6826 6.13752 99.6693 10.5272C99.7093 14.6767 102.83 15.3705 106.258 15.2904Z" fill="#DEE9F5"/>
<path d="M37.2485 201.11C39.1364 202.989 40.635 205.221 41.6581 207.68C42.6813 210.14 43.2088 212.777 43.2105 215.44C43.5306 230.544 44.5442 245.634 44.8243 260.738C45.011 271.412 42.2368 273.787 31.3398 273.907C28.1921 273.907 25.0444 274.08 21.8966 273.907C15.4678 273.653 11.8133 270.224 12.0134 263.766C12.5469 246.421 13.4939 229.183 14.0541 211.878C14.2942 204.619 20.2028 203.218 24.871 200.43L24.791 200.537L27.2585 199.416C30.6329 199.683 33.4872 203.125 37.2485 201.11Z" fill="#DEE9F5"/>
<path d="M177.069 195.373C178.202 187.368 183.057 183.819 190.9 182.724C205.825 180.616 220.643 177.708 235.582 175.573C245.692 174.119 248.319 176.48 249.8 186.861C250.213 189.663 250.293 192.504 250.76 195.293C252.014 202.791 248.386 207.034 241.423 207.808C224.871 209.636 208.266 210.97 191.673 212.411C189.156 212.704 186.607 212.253 184.343 211.112C182.079 209.971 180.199 208.192 178.936 205.994C178.856 204.553 178.776 203.085 178.696 201.617C179.163 199.242 179.936 196.801 177.069 195.293V195.373Z" fill="#DEE9F5"/>
<path d="M136.428 140.629C140.03 142.577 146.779 142.164 146.058 147.474C145.431 152.197 139.656 154.145 134.761 154.345C112.354 155.332 89.706 159.816 67.9121 150.409C64.0975 148.768 63.1105 151.65 63.1905 154.025C64.1642 181.35 57.6421 209.556 72.407 235.307C74.417 239.199 75.8417 243.367 76.6351 247.675C71.2999 241.378 65.9648 235.134 60.6297 228.876C62.417 228.502 63.5506 227.342 63.0171 225.58C56.8551 204.953 59.8161 183.792 59.4426 162.871C59.1492 146.246 60.5363 145.059 77.2086 140.856C89.2126 140.976 101.297 141.443 113.327 141.069C121.05 140.816 128.826 144.365 136.428 140.629Z" fill="#2E4356"/>
<path d="M77.2218 140.843C60.5496 145.045 59.1624 146.18 59.4559 162.858C59.8293 183.792 56.8683 204.953 63.0304 225.567C63.5639 227.328 62.4302 228.489 60.6429 228.863C54.4009 217.948 53.3472 206.18 54.0541 193.852C54.2941 189.649 56.2014 184.366 50.6129 181.55C47.4118 179.336 44.2063 177.112 40.9963 174.879C36.995 160.416 37.5285 158.988 50.1594 151.25C55.8146 147.767 57.962 139.642 66.3381 139.575C70.0994 139.535 73.8207 138.294 77.2218 140.843Z" fill="#DEE9F5"/>
<path d="M41.0231 174.866C44.2241 177.107 47.4297 179.331 50.6396 181.537C42.9171 185.82 40.1295 193.465 37.3018 201.097C33.5006 203.098 30.6329 199.656 27.2718 199.429C28.1521 189.196 36.875 183.312 41.0231 174.866Z" fill="#2E4356"/>
<path d="M182.11 201.617L177.736 201.324C175.295 197.401 172.64 193.558 170.413 189.489C167.999 185.073 164.664 184.379 160.356 186.153C161.343 178.722 167.972 177.227 172.974 174.145C176.642 183.925 184.284 191.37 188.499 200.83C186.085 197.081 183.724 193.265 178.322 193.972C178.082 191.544 177.362 189.462 174.321 188.982L178.322 193.892C179.736 196.414 180.897 199.016 182.11 201.617Z" fill="#2E4356"/>
<path d="M186.405 79.5742C184.991 70.8216 184.591 62.0823 186.765 53.3831C194.314 61.0683 194.154 73.0631 186.405 79.5742Z" fill="#DEE9F5"/>
<path d="M26.4848 53.6099C28.4321 61.9622 27.8186 70.368 26.9116 78.7737C18.5888 74.6375 18.3488 61.0549 26.4848 53.6099Z" fill="#DEE9F5"/>
<path d="M122.17 186.1C122.043 188.286 122.043 190.478 122.17 192.665C123.05 200.176 119.623 202.445 112.394 202.231C89.0392 201.511 90.7597 205.407 90.8931 180.483C90.8931 169.022 91.5867 168.475 103.231 168.275H104.164C122.144 168.114 122.144 168.114 122.17 186.1ZM114.714 176.173C109.006 174.092 103.097 172.451 97.6954 175.626C95.6947 176.8 95.748 194.559 97.6954 195.64C102.897 198.495 108.672 197.201 114.181 196.694C116.568 196.48 116.582 193.198 115.635 192.184C112.807 189.169 114.874 193.785 113.434 193.879C108.472 194.172 102.177 197.001 99.1626 192.144C93.6941 183.352 99.7761 174.986 110.22 175.72C111.713 175.826 113.221 176.027 114.714 176.12V176.173Z" fill="#2E4356"/>
<path d="M147.926 220.59C152.26 196.787 149.606 172.891 150.113 148.461C156.195 157.294 154.688 212.145 147.926 220.59Z" fill="#2E4356"/>
<path d="M117.409 129.862C116.902 130.115 116.382 130.596 115.928 130.542C115.475 130.489 115.101 129.875 114.688 129.515C115.208 129.288 115.741 128.848 116.235 128.874C116.728 128.901 117.049 129.488 117.409 129.862Z" fill="#3E8AFD"/>
<path d="M106.618 92.0627C97.6553 91.3155 88.8924 90.7285 83.6507 82.0159C80.7964 77.2393 81.3566 74.1572 87.532 74.0771C100.056 73.917 112.58 73.8236 125.105 73.9704C132.8 74.0504 132.467 78.2533 129.106 83.1766C123.544 91.1688 114.954 91.5824 106.618 92.0627Z" fill="#3E8AFD"/>
<path d="M75.7013 39.9339C79.0434 40.0144 82.2188 41.4101 84.5386 43.8181C86.8584 46.2261 88.1352 49.4521 88.0921 52.796C87.8254 59.2804 80.5696 66.8856 74.8744 66.6454C69.1792 66.4053 61.6833 58.1729 61.6966 52.5158C61.67 45.7912 68.4589 39.6937 75.7013 39.9339Z" fill="#3E8AFD"/>
<path d="M152.114 52.2623C152.036 55.7623 150.578 59.0895 148.056 61.517C145.534 63.9445 142.155 65.275 138.656 65.2178C131.813 64.9643 125.398 58.1863 125.718 51.5552C126.025 45.2308 132.387 39.8672 139.403 39.9206C146.418 39.9739 152.247 45.4443 152.114 52.2623Z" fill="#3E8AFD"/>
<path d="M184.084 51.9287C182.47 51.822 182.057 50.9013 182.417 49.447C183.738 49.8073 185.071 50.1008 184.084 51.9287Z" fill="#3E8AFD"/>
<path d="M106.245 15.2904C102.83 15.3705 99.6827 14.7167 99.696 10.5272C99.696 6.11083 102.51 3.40233 106.752 3.46904C107.623 3.45306 108.489 3.61114 109.298 3.93404C110.107 4.25694 110.844 4.73817 111.465 5.34951C112.086 5.96086 112.579 6.69002 112.915 7.49432C113.251 8.29862 113.423 9.16188 113.421 10.0335C113.794 15.3972 109.113 14.1696 106.245 15.2904Z" fill="#2E4356"/>
<path d="M182.11 201.617C180.897 199.016 179.696 196.414 178.482 193.825L178.389 193.905C183.724 193.198 186.152 197.014 188.566 200.763C186.739 203.445 184.404 202.378 182.11 201.617Z" fill="#3E8AFD"/>
<path d="M178.482 193.825L174.481 188.915C177.495 189.396 178.216 191.477 178.482 193.905V193.825Z" fill="#3E8AFD"/>
<path d="M114.714 176.12C113.221 175.973 111.74 175.773 110.246 175.666C99.8028 174.933 93.7207 183.298 99.1892 192.091C102.204 196.948 108.526 194.119 113.461 193.825C114.901 193.732 112.834 189.116 115.661 192.131C116.608 193.145 116.595 196.427 114.208 196.641C108.699 197.148 102.924 198.442 97.722 195.587C95.748 194.506 95.6947 176.747 97.722 175.573C103.097 172.451 109.046 174.092 114.714 176.12Z" fill="#3E8AFD"/>
<path d="M134.121 133.771C133.434 134.118 132.804 134.568 132.254 135.105L135.601 135.986V135.839L135.681 136.373C135.655 136.196 135.655 136.016 135.681 135.839V136.373C135.707 136.223 135.747 136.075 135.802 135.933L135.601 136.413C135.656 136.268 135.732 136.133 135.828 136.013L135.508 136.413L132.36 133.985L132.107 134.492L135.761 136.039L135.948 135.386C136.084 134.874 136.013 134.33 135.751 133.871C135.489 133.412 135.056 133.074 134.548 132.931C133.719 132.737 132.856 132.737 132.027 132.931C131.634 133.042 131.254 133.194 130.893 133.384C130.64 133.518 130.413 133.678 130.159 133.784L130.64 133.584L130.32 133.664L130.853 133.598C130.769 133.611 130.684 133.611 130.6 133.598L131.133 133.678H130.893L131.373 137.334L132.454 136.613C132.777 136.363 133.121 136.14 133.481 135.946L133 136.146L133.307 136.053L132.774 136.133H132.947C133.478 136.133 133.987 135.922 134.362 135.547C134.737 135.171 134.948 134.662 134.948 134.131C134.948 133.601 134.737 133.092 134.362 132.716C133.987 132.341 133.478 132.13 132.947 132.13C132.146 132.147 131.372 132.429 130.746 132.931L129.413 133.878C129.078 134.081 128.809 134.377 128.638 134.73C128.468 135.082 128.403 135.477 128.452 135.866C128.495 136.213 128.634 136.541 128.852 136.813C129.118 137.153 129.481 137.404 129.893 137.534C130.203 137.651 130.536 137.697 130.866 137.667C131.332 137.643 131.786 137.52 132.2 137.307C132.52 137.16 132.827 136.947 133.147 136.8L132.667 137.013C132.928 136.905 133.201 136.829 133.481 136.786L132.947 136.853C133.253 136.813 133.562 136.813 133.867 136.853L133.334 136.786H133.494L132.16 134.318L131.973 134.972C131.843 135.441 131.887 135.941 132.098 136.379C132.309 136.817 132.673 137.164 133.12 137.353C133.568 137.543 134.07 137.563 134.531 137.41C134.993 137.256 135.383 136.94 135.628 136.52L135.881 135.999C136.145 135.533 136.217 134.983 136.082 134.465C135.962 134.052 135.715 133.687 135.375 133.424C135.034 133.142 134.603 132.99 134.161 132.997C133.898 132.99 133.637 133.037 133.394 133.135C133.15 133.234 132.93 133.382 132.747 133.571C132.322 134.043 132.019 134.612 131.863 135.228C131.707 135.844 131.704 136.489 131.853 137.107C131.938 137.435 132.105 137.735 132.338 137.98C132.572 138.226 132.864 138.407 133.187 138.508C133.529 138.594 133.888 138.592 134.229 138.501C134.569 138.41 134.881 138.233 135.135 137.987C135.257 137.873 135.387 137.767 135.521 137.667L135.108 137.974C135.444 137.719 135.806 137.499 136.188 137.32C136.647 137.05 136.98 136.61 137.115 136.095C137.25 135.58 137.176 135.032 136.909 134.572C136.642 134.125 136.211 133.799 135.708 133.664C135.19 133.536 134.642 133.607 134.174 133.865L134.121 133.771Z" fill="#2E4356"/>
<path d="M134.108 137.56C134.014 137.378 133.96 137.178 133.948 136.973C133.948 136.653 133.948 136.573 133.948 136.733C133.948 136.893 133.867 137.013 133.814 137.147C133.711 137.531 133.648 137.924 133.627 138.321C133.627 138.935 133.627 139.562 133.627 140.175L133.547 144.005C133.547 144.536 133.758 145.045 134.133 145.42C134.509 145.795 135.017 146.006 135.548 146.006C136.074 145.993 136.575 145.777 136.948 145.405C137.32 145.033 137.535 144.531 137.549 144.005L137.629 139.882C137.629 139.535 137.629 139.188 137.629 138.855C137.629 138.721 137.629 138.588 137.629 138.454C137.629 138.321 137.629 138.268 137.629 138.588C137.623 138.499 137.623 138.41 137.629 138.321C137.817 137.879 137.905 137.401 137.886 136.921C137.868 136.442 137.743 135.972 137.522 135.546C137.245 135.108 136.809 134.794 136.306 134.671C135.802 134.548 135.271 134.626 134.824 134.887C134.376 135.148 134.047 135.572 133.906 136.071C133.765 136.57 133.823 137.104 134.068 137.56H134.108Z" fill="#2E4356"/>
<path d="M132.134 132.49C131.6 132.944 130.533 132.77 129.906 132.744L126.438 132.57L119.263 132.21V136.213L134.414 135.172C136.949 134.999 137.082 131.169 134.414 131.169L110.753 131.423C110.223 131.423 109.714 131.634 109.338 132.009C108.963 132.384 108.752 132.893 108.752 133.424C108.752 133.955 108.963 134.464 109.338 134.839C109.714 135.215 110.223 135.426 110.753 135.426L134.414 135.172V131.169L119.263 132.21C118.732 132.21 118.223 132.421 117.848 132.796C117.473 133.172 117.262 133.681 117.262 134.211C117.262 134.742 117.473 135.251 117.848 135.627C118.223 136.002 118.732 136.213 119.263 136.213L127.825 136.64C130.36 136.76 132.894 137.093 134.961 135.305C137.029 133.518 134.081 130.809 132.134 132.477V132.49Z" fill="#2E4356"/>
<path d="M78.7957 141.43C76.8963 141.79 75.053 142.4 73.3139 143.244C72.4372 143.697 71.6288 144.272 70.913 144.952C70.5932 145.274 70.2904 145.612 70.0061 145.966C69.8594 146.14 69.6993 146.3 69.5526 146.46C69.3926 146.62 69.4059 146.62 69.5526 146.46C69.4607 146.523 69.3623 146.577 69.2592 146.62L71.6866 149.769L72.1001 149.462L72.847 148.955C73.3716 148.635 73.9052 148.341 74.4476 148.074C74.7459 147.895 74.9929 147.642 75.1643 147.339C75.3357 147.036 75.4258 146.694 75.4258 146.346C75.4258 145.998 75.3357 145.656 75.1643 145.354C74.9929 145.051 74.7459 144.798 74.4476 144.619C73.5308 144.178 72.4919 144.06 71.4999 144.285C70.8338 144.46 70.1826 144.687 69.5526 144.965C68.7896 145.226 68.0415 145.529 67.3119 145.873C66.8972 146.114 66.5525 146.459 66.3116 146.873C66.1305 147.217 66.0358 147.599 66.0358 147.987C66.0358 148.376 66.1305 148.758 66.3116 149.102C66.5789 149.56 67.017 149.893 67.5297 150.028C68.0423 150.163 68.5876 150.089 69.0458 149.822C69.4932 149.545 69.8173 149.107 69.9513 148.598C70.0853 148.089 70.0189 147.548 69.766 147.087V146.98L69.9794 148.528C69.9296 148.728 69.8302 148.912 69.6903 149.064C69.5504 149.216 69.3746 149.329 69.1791 149.395L69.3792 149.328L69.9527 149.102L71.2865 148.608C71.6382 148.453 71.999 148.319 72.3669 148.208L72.647 148.141C72.4469 148.141 72.4203 148.141 72.567 148.141C72.9671 148.141 72.727 148.141 72.567 148.061V144.605C71.2747 145.269 70.0544 146.065 68.9257 146.98C68.5714 147.326 68.3597 147.792 68.3326 148.286C68.3054 148.78 68.4647 149.266 68.779 149.649C69.0751 150.029 69.4985 150.29 69.9715 150.383C70.4444 150.476 70.935 150.396 71.3532 150.156C72.1657 149.652 72.8724 148.995 73.4339 148.221L73.914 147.754C73.914 147.687 74.5409 147.26 74.1675 147.527C74.5101 147.285 74.8664 147.062 75.2345 146.86L75.768 146.593L76.0748 146.446C76.4883 146.3 76.8884 146.153 77.3019 146.033C78.1555 145.766 79.0358 145.553 79.9694 145.366C80.4659 145.208 80.8822 144.865 81.1309 144.407C81.3796 143.949 81.4413 143.413 81.3032 142.911C81.1404 142.418 80.796 142.006 80.3401 141.758C79.8842 141.51 79.351 141.445 78.849 141.576L78.7957 141.43Z" fill="#2E4356"/>
<path d="M135.721 144.565H135.962H135.735H136.108C136.375 144.545 136.642 144.545 136.909 144.565C137.122 144.565 137.322 144.699 136.909 144.565H137.255C137.255 144.645 137.669 144.685 137.255 144.565C137.255 144.485 137.776 144.845 137.442 144.645C137.109 144.445 137.442 144.645 137.535 144.765C137.629 144.885 137.535 144.765 137.389 144.578L137.509 144.765C137.634 144.955 137.75 145.151 137.855 145.352C138.229 145.995 138.75 146.539 139.376 146.94L139.856 143.284C140.19 143.284 140.243 143.284 140.03 143.284C140.323 143.284 140.403 143.351 140.243 143.284C140.083 143.218 140.163 143.284 140.443 143.364C140.723 143.444 140.697 143.591 140.59 143.484L139.963 142.764L138.709 141.216L137.455 139.682L136.842 138.935L136.548 138.561L136.348 138.321C136.544 138.547 136.653 138.836 136.655 139.135L136.388 140.149C136.243 140.425 136.013 140.648 135.733 140.785C135.452 140.921 135.135 140.965 134.828 140.909C134.641 140.909 134.601 140.909 134.708 140.909C134.814 140.909 134.921 141.003 134.974 140.989C134.694 140.869 134.628 140.843 134.761 140.909C134.796 140.902 134.833 140.902 134.868 140.909C134.957 140.95 135.042 140.999 135.121 141.056C135.295 141.176 135.375 141.35 135.121 141.056C135.176 141.108 135.234 141.157 135.295 141.203C135.441 141.336 135.588 141.483 135.721 141.63C136.322 142.27 136.868 142.964 137.509 143.551C138.233 144.171 138.923 144.83 139.576 145.526C139.309 145.126 139.736 145.713 139.576 145.526L139.763 145.806L139.923 146.099C139.843 145.819 140.11 146.42 139.923 146.099C140.003 146.38 139.923 146.313 140.016 146.42V146.54C140.016 146.713 140.016 146.713 140.016 146.54C140.016 146.353 140.016 146.366 140.016 146.54V146.673C140.016 146.82 140.016 147.22 140.016 146.673C139.888 147.196 139.959 147.748 140.216 148.221C140.415 148.56 140.71 148.834 141.063 149.006C141.416 149.179 141.813 149.244 142.203 149.193C142.593 149.142 142.959 148.977 143.256 148.718C143.552 148.46 143.766 148.12 143.871 147.741C144.068 146.61 143.915 145.446 143.431 144.405C143.057 143.637 142.556 142.938 141.95 142.337C141.39 141.75 140.75 141.243 140.15 140.682C139.549 140.122 139.229 139.682 138.816 139.175C137.602 137.841 135.361 136.146 133.587 137.534C133.236 137.802 132.97 138.167 132.821 138.584C132.672 139 132.646 139.451 132.747 139.882C132.98 140.536 133.359 141.13 133.854 141.616L135.521 143.644L137.375 145.926C137.774 146.479 138.328 146.901 138.967 147.138C139.605 147.376 140.3 147.418 140.963 147.26C141.339 147.155 141.676 146.94 141.93 146.643C142.184 146.346 142.344 145.981 142.39 145.592C142.444 145.205 142.383 144.81 142.215 144.456C142.047 144.103 141.778 143.807 141.443 143.604C141.137 143.418 141.817 143.938 141.443 143.604C141.07 143.271 141.67 143.965 141.443 143.604L141.043 142.937C140.642 142.222 140.051 141.631 139.336 141.23C137.899 140.604 136.298 140.464 134.775 140.829C134.274 140.97 133.849 141.3 133.587 141.75C133.319 142.219 133.243 142.773 133.374 143.298C133.52 143.795 133.849 144.22 134.294 144.485C134.77 144.734 135.317 144.809 135.841 144.699L135.721 144.565Z" fill="#2E4356"/>
</g>
<defs>
<filter id="filter0_d_373_1310" x="0" y="314" width="198" height="107" filterUnits="userSpaceOnUse" color-interpolation-filters="sRGB">
<feFlood flood-opacity="0" result="BackgroundImageFix"/>
<feColorMatrix in="SourceAlpha" type="matrix" values="0 0 0 0 0 0 0 0 0 0 0 0 0 0 0 0 0 0 127 0" result="hardAlpha"/>
<feMorphology radius="5" operator="dilate" in="SourceAlpha" result="effect1_dropShadow_373_1310"/>
<feOffset/>
<feGaussianBlur stdDeviation="10"/>
<feColorMatrix type="matrix" values="0 0 0 0 0 0 0 0 0 0 0 0 0 0 0 0 0 0 0.25 0"/>
<feBlend mode="normal" in2="BackgroundImageFix" result="effect1_dropShadow_373_1310"/>
<feBlend mode="normal" in="SourceGraphic" in2="effect1_dropShadow_373_1310" result="shape"/>
</filter>
<clipPath id="clip0_373_1310">
<rect width="239" height="274" fill="white" transform="translate(12)"/>
</clipPath>
</defs>
</svg>
